# xmcd
#
# Track frame offsets: 
#        150
#        16006
#        29931
#        41576
#        58925
#        74553
#        91587
#        102083
#        115037
#        131270
#        138519
#        155200
#        168210
#        183453
#
# Disc length: 2593 seconds
#
# Revision: 0
# Processed by: cddbd v1.4PL0 Copyright (c) Steve Scherf et al.
# Submitted via: ExactAudioCopy v0.90a11
#
DISCID=bd0a1f0e
DTITLE=Sugareen - Ready Steady Go
DYEAR=1900
DGENRE=
TTITLE0=black and blue
TTITLE1=stay
TTITLE2=traffic jam fantastic
TTITLE3=melt
TTITLE4=agent dan
TTITLE5=its hard
TTITLE6=dolores
TTITLE7=nowhere to go
TTITLE8=she likes to be obscene
TTITLE9=paul gascologne
TTITLE10=catch you later
TTITLE11=rarity
TTITLE12=take it
TTITLE13=rendevouz d amour
EXTD=
EXTT0=
EXTT1=
EXTT2=
EXTT3=
EXTT4=
EXTT5=
EXTT6=
EXTT7=
EXTT8=
EXTT9=
EXTT10=
EXTT11=
EXTT12=
EXTT13=
PLAYORDER=
